PathFileType	4	(X/Y/Z)	OpenSim_Sub02_CSBaseline_Gyro.trc
DataRate	CameraRate	NumFrames	NumMarkers	Units	OrigDataRate	OrigDataStartFrame	OrigNumFrames
100	100	30	8	m	100	2647	7057
Frame#	Time	torso_imu_offset_imu	pelvis_imu_offset_imu	tibia_r_imu_offset_imu	femur_r_imu_offset_imu	tibia_l_imu_offset_imu	femur_l_imu_offset_imu	toes_r_imu_offset_imu	toes_l_imu_offset_imu
				X1	Y1	Z1	X2	Y2	Z2	X3	Y3	Z3	X4	Y4	Z4	X5	Y5	Z5	X6	Y6	Z6	X7	Y7	Z7	X8		Y8	Z8	

2647	26.46000000	0.86979683	-0.18745341	0.36934853	0.74103581	-0.01776147	0.02676570	-2.96462585	-0.72562414	-1.13700465	1.02783173	-0.40405767	-0.34121579	0.23991312	0.48912820	0.70502943	0.65042400	-0.42794919	-2.84313103	-0.18764708	-0.12349351	0.03440858	1.20783226	-4.65881882	3.47685400
2648	26.47000000	0.97512571	-0.23877237	0.36051353	0.67073622	-0.17231779	-0.09656441	-1.96780097	-0.43357729	-1.08586014	1.08328492	-0.36079836	-0.53873281	0.27921727	0.36476115	0.40136732	0.56562788	-0.73089982	-2.65002320	-0.23234869	-0.13804837	0.04981448	0.89043646	-2.68844193	2.97871892
2649	26.48000000	1.05405096	-0.26893794	0.32769835	0.58116586	-0.26172039	-0.21411775	-0.65333965	-0.08687415	-0.89680562	0.99616087	-0.34247322	-0.77383115	0.79785741	0.32601204	0.20670564	0.49787933	-0.95357050	-2.45685871	-0.18655389	-0.14614195	0.04768340	1.13797876	1.49092090	1.69187977
2650	26.49000000	1.09174449	-0.29187005	0.27819965	0.47815534	-0.30788447	-0.33493229	0.40559276	0.13241972	-0.68650266	0.69345409	-0.35557372	-0.91682171	0.95071189	0.21915319	0.29903823	0.43125680	-1.08710618	-2.25104017	-0.14280770	-0.16160474	0.04034574	0.77243194	3.09057686	0.79036230
2651	26.50000000	1.10364319	-0.31200950	0.24265918	0.38378093	-0.33307290	-0.40914706	1.06182419	0.15652476	-0.54005896	0.22638322	-0.39790875	-0.93208692	0.56614263	-0.19463190	0.48991604	0.38133547	-1.15278718	-2.06060964	-0.11905779	-0.17463729	0.03327817	0.06370320	3.75618003	0.28924962
2652	26.51000000	1.09170288	-0.33277683	0.21688448	0.33593391	-0.33261637	-0.43821520	1.48591659	0.11559059	-0.48427926	-0.27558690	-0.46770630	-0.83877671	0.36126663	-0.80790489	0.36214050	0.29260820	-1.09395925	-1.87651793	-0.01039812	-0.18414362	0.01460509	-0.25917088	3.28300799	0.15337154
2653	26.52000000	1.07408830	-0.34487223	0.19200895	0.34261766	-0.28538632	-0.44801328	1.69911933	0.08010354	-0.48768840	-0.66919844	-0.55607444	-0.69239855	0.66709113	-1.19484207	-0.15615022	0.07745225	-0.89843004	-1.73333725	-0.03403602	-0.20573118	-0.00359959	-0.47223533	2.75951904	0.03416787
2654	26.53000000	1.05404676	-0.35492033	0.18052425	0.37680933	-0.20909601	-0.46319710	1.41114058	-0.03370838	-0.47009698	-0.85719986	-0.60522811	-0.56973974	1.18007182	-1.19938540	-0.92569926	-0.18187991	-0.65138895	-1.61410245	-0.01606578	-0.22610438	-0.03906019	-0.25619635	2.41256032	-0.19653719
2655	26.54000000	1.02552804	-0.34520831	0.16473742	0.40353014	-0.13099714	-0.49303696	0.49526240	-0.25883930	-0.48201017	-0.81600259	-0.57658058	-0.53054223	1.35836520	-1.02940842	-1.68245681	-0.55411164	-0.43070483	-1.57156651	0.01770334	-0.22135559	-0.07325785	0.10317960	2.45270866	-0.56867301
2656	26.55000000	0.99732251	-0.32519631	0.16046959	0.41068311	-0.05914951	-0.50257402	-0.73123205	-0.43106865	-0.59444120	-0.63444543	-0.51199938	-0.57532201	0.96334294	-0.96823025	-2.13027502	-0.84901908	-0.25224619	-1.55341569	-0.07024464	-0.24446842	-0.09998216	0.33758333	2.76443539	-0.99821776
2657	26.56000000	0.96594747	-0.29837048	0.16802473	0.38650450	-0.00495456	-0.49629902	-1.76585400	-0.46539640	-0.73020406	-0.48751633	-0.44754336	-0.63620574	0.34930336	-1.15389938	-2.29199229	-1.18995776	-0.06606949	-1.54463394	-0.07174085	-0.27512293	-0.15012848	0.38348049	3.23600114	-1.40703531
2658	26.57000000	0.93359406	-0.25823848	0.18050595	0.33189893	0.04384525	-0.46390271	-2.23685045	-0.39471855	-0.77384610	-0.42755577	-0.44070028	-0.65233416	-0.10729842	-1.56110823	-2.35163101	-1.35651323	0.08030932	-1.54086388	-0.08031624	-0.29082082	-0.17814393	0.28361435	3.81705651	-1.72991391
2659	26.58000000	0.90415371	-0.21954540	0.19373061	0.26412629	0.08579676	-0.42294581	-2.17693153	-0.29206101	-0.72508589	-0.46123370	-0.45930782	-0.63755432	-0.30940826	-2.02788345	-2.39755171	-1.27938393	0.21991331	-1.45029291	-0.06250789	-0.25449493	-0.16031009	0.23713807	4.33841753	-1.94319792
2660	26.59000000	0.87730097	-0.18898722	0.20434584	0.19234806	0.11985994	-0.40237292	-1.68834249	-0.19450233	-0.65845866	-0.54453238	-0.48043669	-0.61163077	-0.41847037	-2.37527303	-2.50537784	-1.26794842	0.37055306	-1.36052318	-0.08669481	-0.21349557	-0.13397756	0.39237759	4.67933949	-2.03067111
2661	26.60000000	0.85093673	-0.17945364	0.21085914	0.12156932	0.15592662	-0.37989679	-0.90279100	-0.13533701	-0.58854358	-0.66373958	-0.50296192	-0.58049771	-0.55901982	-2.45758250	-2.73727344	-1.23139236	0.47927664	-1.20684833	-0.05818919	-0.18027760	-0.12233167	0.74224531	4.85839025	-1.98878087
2662	26.61000000	0.81730451	-0.17499169	0.20355666	0.05365561	0.18904683	-0.35730732	0.01943291	-0.09547726	-0.52169810	-0.79114449	-0.53734976	-0.55076518	-0.59251051	-2.35935239	-3.07029222	-1.26573162	0.53176456	-1.09332123	-0.05130228	-0.15547246	-0.11865933	1.19056166	4.94517706	-1.82142489
2663	26.62000000	0.77253593	-0.16803014	0.19907933	-0.01228625	0.18943516	-0.33076727	0.70669370	-0.06030900	-0.46116722	-0.85908453	-0.56352332	-0.53640487	-0.50155576	-2.25457107	-3.39292769	-1.24294980	0.50042116	-0.92204033	-0.01446372	-0.12745128	-0.11091654	1.53532707	5.01018472	-1.56367478
2664	26.63000000	0.72399165	-0.15974711	0.19926652	-0.05771899	0.17467602	-0.28935067	0.88560011	-0.06592809	-0.43742020	-0.81421329	-0.55728551	-0.54036108	-0.23890493	-2.24113208	-3.64257469	-1.23674853	0.44857995	-0.72977883	0.06836711	-0.09415480	-0.10937183	1.64063839	5.08713345	-1.28387583
2665	26.64000000	0.68223348	-0.15751322	0.19332847	-0.07882910	0.15019758	-0.24467396	0.68587539	-0.04249128	-0.50313133	-0.64064761	-0.52940989	-0.55376392	-0.01469367	-2.31146844	-3.82111741	-1.30758541	0.47666492	-0.58807832	0.00329375	-0.06076303	-0.10191151	1.61377914	5.17997707	-1.02581770
2666	26.65000000	0.63221164	-0.15884232	0.18222271	-0.06986047	0.12783912	-0.19154226	0.23002457	-0.04994095	-0.64025546	-0.35533766	-0.52647566	-0.57826046	0.09154053	-2.37281969	-3.91926725	-1.16385446	0.45413972	-0.49985643	0.00866353	-0.04348001	-0.10621540	1.57126831	5.22642762	-0.85136491
2667	26.66000000	0.58223386	-0.15924010	0.16823091	-0.03099921	0.11036724	-0.15147168	-0.30145012	-0.13544722	-0.73875918	-0.00006335	-0.53257088	-0.62791991	0.19642430	-2.43223247	-3.96262587	-0.73789232	0.33446769	-0.39232579	0.01407479	-0.03558103	-0.12027084	1.54165601	5.18553813	-0.77247522
2668	26.67000000	0.53125218	-0.15815375	0.15562729	0.00773585	0.10281146	-0.10258313	-0.70533292	-0.13876018	-0.77516034	0.35837384	-0.53501395	-0.66800934	0.43822379	-2.51655576	-4.01273503	-0.29196962	0.18758418	-0.37077190	0.02928585	-0.03426718	-0.14144159	1.42359943	5.06324214	-0.77130105
2669	26.68000000	0.47780318	-0.15883391	0.14469838	0.02468246	0.10798504	-0.05706638	-0.83307908	-0.10303887	-0.78627751	0.63228253	-0.54713906	-0.69493021	0.78902806	-2.53466700	-4.02684173	0.16299691	0.07560131	-0.32491606	0.02464956	-0.02290203	-0.14445227	1.22077771	4.88898194	-0.83063443
2670	26.69000000	0.42527536	-0.15993369	0.13199350	0.03219078	0.12298732	-0.03558702	-0.62739274	-0.05298200	-0.80661933	0.76322572	-0.58188321	-0.71950606	1.12227758	-2.48287661	-4.01888474	0.60437496	0.01365181	-0.23532662	0.01798724	-0.01647365	-0.12788797	0.99024039	4.69320997	-0.93899290
2671	26.70000000	0.37559325	-0.16574143	0.11825950	0.05552547	0.13608840	-0.00999193	-0.20051089	-0.00072384	-0.78770486	0.77618990	-0.61264989	-0.70858785	1.26631632	-2.36182926	-4.06390961	0.98789167	-0.01627840	-0.09092448	0.01957681	-0.01370866	-0.11762247	0.79854794	4.53018316	-1.04944538
2672	26.71000000	0.33404209	-0.17150820	0.10608234	0.09374840	0.14743606	0.01524697	0.26462563	0.03794865	-0.73414039	0.70562611	-0.62790432	-0.70809752	1.22669516	-2.25909883	-4.12711073	1.23175766	-0.09481342	0.02198445	0.04175757	-0.01294910	-0.10958852	0.67700879	4.40468535	-1.15066241
2673	26.72000000	0.30521775	-0.17554121	0.09238439	0.12429518	0.15393630	0.05055029	0.62456993	0.06493092	-0.69346812	0.59513436	-0.61070036	-0.71935653	1.00983627	-2.26726630	-4.17511283	1.36469323	-0.20140898	0.15386169	0.06294504	-0.02118832	-0.10045870	0.65139882	4.30209013	-1.24458940
2674	26.73000000	0.28164855	-0.16325781	0.08236721	0.15192289	0.15706246	0.08016583	0.76461125	0.07908586	-0.71690374	0.48509797	-0.58193716	-0.73354142	0.53499137	-2.29081720	-4.13230895	1.41606920	-0.31353339	0.29063466	0.00842219	-0.01924557	-0.08318591	0.71657514	4.19903376	-1.32801775
2675	26.74000000	0.26163081	-0.14964408	0.07609990	0.17377056	0.15874498	0.08490166	0.68053445	0.06847683	-0.76767239	0.39486130	-0.56177369	-0.75155207	-0.10981707	-2.29878365	-4.01514609	1.44294617	-0.42656391	0.40380967	0.01908281	-0.03651019	-0.07324119	0.71042150	4.10416878	-1.38914407
2676	26.75000000	0.24815746	-0.13487222	0.07375650	0.20218627	0.14949004	0.10751363	0.44486689	0.04479472	-0.79617461	0.32511564	-0.55187246	-0.76977963	-0.77329856	-2.27237209	-3.95484266	1.51021653	-0.50924564	0.48675914	0.00749068	-0.06383424	-0.07801048	0.58049084	3.96003704	-1.45568540
